<svg width="1054" height="311" viewBox="0 0 1054 311" fill="none" xmlns="http://www.w3.org/2000/svg">
<path d="M111.167 88.2943H0V165.002H34.508L111.167 88.2943Z" fill="#FD4A5C"/>
<path d="M0 199.531V310.768L111.167 165.001H34.508L0 199.531Z" fill="#FFD637"/>
<path d="M0 165.001V199.531L34.508 165.001H0Z" fill="#FF9739"/>
<path d="M187.826 241.94C168.894 241.941 150.628 234.952 136.525 222.314C122.423 209.675 113.476 192.275 111.398 173.446V311H264.716L192.068 241.82C190.666 241.9 189.252 241.94 187.826 241.94Z" fill="#32FCBE"/>
<path d="M192.068 241.82C207.072 240.99 221.505 235.779 233.581 226.832C245.658 217.884 254.85 205.591 260.02 191.473C265.191 177.355 266.114 162.03 262.676 147.393C259.237 132.755 251.588 119.447 240.673 109.112C229.758 98.7776 216.055 91.8699 201.26 89.2427C186.464 86.6156 171.223 88.3842 157.421 94.33C143.619 100.276 131.86 110.138 123.599 122.698C115.337 135.258 110.935 149.965 110.935 165.001C110.937 167.823 111.092 170.642 111.398 173.446V165.001L192.068 241.82Z" fill="#A099FF"/>
<path d="M187.826 241.94C189.252 241.94 190.666 241.9 192.068 241.82L111.398 165.001V173.446C113.476 192.275 122.423 209.675 136.525 222.314C150.628 234.952 168.894 241.941 187.826 241.94V241.94Z" fill="#A84DFF"/>
<path d="M943.76 310.537C1004.64 310.537 1054 261.149 1054 200.227C1054 139.304 1004.64 89.9166 943.76 89.9166C882.875 89.9166 833.519 139.304 833.519 200.227C833.519 261.149 882.875 310.537 943.76 310.537Z" fill="#FFD637"/>
<path d="M556 164.012H632.427V127.763L556 164.012Z" fill="#A099FF"/>
<path d="M632.493 88.0626V127.825L716.331 88.0626H632.493Z" fill="#32FCBE"/>
<path d="M716.331 88.0626V164.075H632.493V311H716.331V88.0626Z" fill="#32FCBE"/>
<path d="M716.331 88.0626L632.493 127.825V164.075H716.331V88.0626Z" fill="#A84DFF"/>
<path d="M791.766 88H716.265V164.012H791.766V88Z" fill="#A099FF"/>
<path d="M495.725 278.718C538.802 235.642 538.802 165.794 495.725 122.718C452.648 79.641 382.872 79.6364 339.823 122.718L495.725 278.718Z" fill="#FF9739"/>
<path d="M943.76 310.073C990.702 310.073 1028.76 271.995 1028.76 225.023C1028.76 178.051 990.702 139.973 943.76 139.973C896.818 139.973 858.763 178.051 858.763 225.023C858.763 271.995 896.818 310.073 943.76 310.073Z" fill="#FF9739"/>
<path d="M943.76 310.073C974.969 310.073 1000.27 284.757 1000.27 253.528C1000.27 222.298 974.969 196.982 943.76 196.982C912.55 196.982 887.25 222.298 887.25 253.528C887.25 284.757 912.55 310.073 943.76 310.073Z" fill="#FD4A5C"/>
<path d="M340.805 121.735C297.751 164.811 297.751 234.659 340.805 277.735L340.972 277.898L418.918 199.897L340.805 121.735Z" fill="#FD4A5C"/>
<path d="M496.707 277.735L418.918 199.897L340.972 277.898C384.035 320.812 453.699 320.761 496.707 277.735Z" fill="#FD4A5C"/>
<path d="M495.387 0H342.533V44.4948H495.387V0Z" fill="#FFD637"/>
</svg>
